<svg xmlns="http://www.w3.org/2000/svg" xml:space="preserve" width="25.4mm" height="25.4mm" version="1.1" style="shape-rendering:geometricPrecision; text-rendering:geometricPrecision; image-rendering:optimizeQuality; fill-rule:evenodd; clip-rule:evenodd" viewBox="0 0 6348 6348"><circle fill="white" cx="3174" cy="3174" r="3174"/><path fill="#007BA7" d="M2848 4277c406,-1 866,87 1082,-341 128,-253 76,-595 -129,-787 -64,-59 -175,-99 -218,-152l-522 -18 2 169c231,16 431,-40 621,119 150,125 185,366 121,545 -155,433 -803,290 -1190,302l-10 164 243 -1zm461 -1327l266 39c420,104 565,607 382,972 -252,500 -703,283 -1127,363l5 134c35,-57 291,-16 371,-17 126,0 226,-16 348,-42 283,-60 307,-193 498,-279 130,-162 161,-436 130,-636 -49,-318 -216,-377 -266,-524 -289,-114 -236,-177 -615,-162l10 27 -2 125zm-561 344c198,2 426,6 622,23 124,10 139,-20 230,74 55,56 119,167 38,218 -2,497 -759,279 -1124,323l-5 140c153,31 602,16 778,12 722,-17 580,-727 281,-864 -143,-65 -610,-45 -792,-36l-28 110zm-136 -1431l37 -81c3,0 48,3 48,3 328,23 696,-52 886,143l-72 -12c86,82 147,87 247,211 81,98 90,241 152,330 -14,-114 -30,-100 13,-149 107,232 15,359 59,464 2,5 6,9 8,14 28,84 17,56 -15,116 202,-176 109,-1159 -707,-1185 -134,-5 -580,-19 -684,12 -10,113 -27,78 28,134zm717 221c167,30 257,97 331,248 95,192 19,290 9,461l136 49c64,-191 87,-353 9,-548 -50,-126 -188,-309 -328,-321l-55 -20c-68,34 -28,22 -54,38 -3,2 -8,6 -12,8 -41,21 -57,9 -164,-12 -145,-29 -231,39 -256,-73l-54 9 8 142 430 19zm-207 134c121,-1 256,6 344,98 125,131 84,219 64,382l-37 -15c-24,38 -40,32 0,80l123 14c140,-303 11,-556 -281,-663l-210 -10 -3 114zm-1132 2185c221,49 190,13 397,11 120,-2 294,-7 378,49 29,-35 17,-9 25,-64 4,-26 0,-46 -2,-72 -141,-40 -624,-20 -787,-5l-11 81zm622 -2540l686 16 213 37 72 12c-190,-195 -558,-120 -886,-143 0,0 -45,-3 -48,-3l-37 81zm223 2595c90,50 624,22 748,-10 117,-30 176,-48 274,-114 71,-47 157,-136 195,-214 -191,86 -215,219 -498,279 -122,26 -222,42 -348,42 -80,1 -336,-40 -371,17zm-278 -1504l385 -2 -6 -148 -363 -7 -16 157zm1353 -497c-34,160 17,56 -71,402l32 36c3,3 8,8 11,11 30,37 11,5 34,50l64 -14 -5 -40c32,-60 43,-32 15,-116 -2,-5 -6,-9 -8,-14 -44,-105 48,-232 -59,-464 -43,49 -27,35 -13,149zm-272 1152c81,-51 17,-162 -38,-218 -91,-94 -106,-64 -230,-74 -196,-17 -424,-21 -622,-23 33,87 37,51 274,51 291,-1 581,-55 616,264zm-1364 669l296 3c6,-78 15,-87 -16,-152l-263 -11 -17 160zm994 -1326l-2 -149 -281 -6 -11 155 294 0zm-488 -683l206 5c9,-4 37,-16 37,-16 33,-17 20,-9 44,-28l-12 -97 -278 -5 3 141zm713 414l37 15c20,-163 61,-251 -64,-382 -88,-92 -223,-99 -344,-98l3 51c331,16 395,87 368,414zm-7 -710c-97,-107 -396,-59 -541,-59 25,112 111,44 256,73 107,21 123,33 164,12 4,-2 9,-6 12,-8 26,-16 -14,-4 54,-38l55 20zm-1024 295l246 -4 8 -146 -250 2 -4 148zm303 2195c-84,-56 -258,-51 -378,-49 -207,2 -176,38 -397,-11l15 68 760 -8zm-362 -1191c21,7 27,2 49,17 40,28 24,16 48,53l88 -9 -3 -136 -174 -11 -8 86zm-287 -1067l-19 -3c18,82 -11,37 43,69l74 5c29,-19 1,3 33,-18l31 -125 -156 -4 -6 76zm211 1865l143 7 1 -144 -142 -5 -2 142zm389 -2013l133 7c24,-87 27,-57 0,-134l-126 -9 -7 136zm-256 -331c-34,63 -26,73 -32,155 80,-6 118,17 118,-82 0,-82 -26,-81 -86,-73zm434 1354l12 63 107 0 15 -157c-93,-3 -75,-17 -131,28l81 51c-52,36 -17,28 -84,15zm-114 -811l-3 -141 278 5 12 97c-24,19 -11,11 -44,28 0,0 -28,12 -37,16l99 -4 -3 -162 -318 1c-12,83 -29,118 16,160zm-86 1071c69,-144 -20,-153 -20,-153 -28,15 -54,-3 -48,87 6,97 2,56 68,66zm-471 939c20,-30 29,-2 25,-84 -3,-51 -8,-46 -27,-74l-37 -1c-18,28 -31,44 -25,95 10,80 1,49 64,64zm-126 -2077l19 3 6 -76 156 4 -31 125c-32,21 -4,-1 -33,18l88 -8 -2 -153 -190 -5 -13 92zm269 60c36,-8 59,30 56,-74 -3,-91 -21,-63 -56,-72 -20,44 -20,105 0,146zm902 690l41 -2 2 -125 -45 -22 2 149zm-618 -1033c4,84 19,73 -17,127 -35,-53 -23,-48 -19,-126 -38,58 -55,130 38,144 37,-56 34,-90 -2,-145zm0 0l-36 1c-4,78 -16,73 19,126 36,-54 21,-43 17,-127zm-150 1423c-24,-37 -8,-25 -48,-53 -22,-15 -28,-10 -49,-17l4 64 93 6zm394 -262c67,13 32,21 84,-15l-81 -51 -3 66zm-778 -875c24,60 -27,24 28,41 69,21 35,-11 36,-11l-64 -30z"/></svg>
