<?xml version="1.0" encoding="UTF-8"?>
<!DOCTYPE svg PUBLIC "-//W3C//DTD SVG 1.1//EN" "http://www.w3.org/Graphics/SVG/1.1/DTD/svg11.dtd">
<!-- Creator: CorelDRAW Home & Student 2014 -->
<svg xmlns="http://www.w3.org/2000/svg" xml:space="preserve" width="25.4mm" height="25.4mm" version="1.1" style="shape-rendering:geometricPrecision; text-rendering:geometricPrecision; image-rendering:optimizeQuality; fill-rule:evenodd; clip-rule:evenodd"
viewBox="0 0 812 812"
 xmlns:xlink="http://www.w3.org/1999/xlink">
 <defs>
  <style type="text/css">
   <![CDATA[
    .str0 {stroke:white;stroke-width:2.43535}
    .str1 {stroke:white;stroke-width:16.2325}
    .fil2 {fill:none}
    .fil0 {fill:#007BA7}
    .fil1 {fill:white;fill-rule:nonzero}
   ]]>
  </style>
 </defs>
 <g id="Layer_x0020_1">
  <metadata id="CorelCorpID_0Corel-Layer"/>
  <g id="_538681808">
   <circle class="fil0" cx="406" cy="406" r="406"/>
   <g>
    <path class="fil1 str0" d="M347 236l4 0c25,-1 50,-1 68,-1l0 0c10,0 18,0 25,0l0 0c8,1 14,2 22,5l0 0c7,2 14,6 21,10 7,4 14,9 20,14 5,5 10,10 13,15 5,5 8,10 10,15 5,9 6,16 8,24l0 0 0 1 0 1 0 0c1,8 3,19 1,31l0 0c-1,13 -6,27 -9,34l-15 -6c2,-6 7,-19 8,-30l0 0c2,-10 0,-19 -1,-27l0 0 0 0 0 -1 0 0c-2,-7 -3,-13 -6,-20 -2,-3 -5,-8 -8,-12 -4,-4 -8,-8 -12,-13 -5,-4 -11,-9 -18,-12 -6,-4 -12,-7 -18,-9l0 0c-6,-2 -11,-3 -17,-3l0 0c-7,-1 -15,-1 -24,-1 -18,0 -43,1 -68,1l-4 0 0 -16z"/>
    <path class="fil1 str0" d="M389 261c13,0 26,-1 39,-1 12,1 24,2 34,5 10,3 18,7 24,13 6,5 11,11 15,17l0 0c3,6 6,11 8,17 2,7 3,13 4,20 0,7 0,15 -1,22 -1,7 -2,13 -2,17l-1 6 -16 -5 1 -3c0,-4 1,-10 2,-17 0,-6 1,-13 1,-19 -1,-6 -2,-11 -3,-15 -2,-5 -4,-10 -7,-14l0 0c-3,-5 -7,-10 -12,-14 -4,-4 -10,-8 -18,-10 -8,-2 -18,-3 -30,-3 -12,-1 -24,0 -37,0l-1 -16z"/>
    <path class="fil1 str0" d="M420 287c8,0 17,0 25,1 8,2 16,4 23,9 6,4 10,10 13,17 4,7 6,16 7,24 1,11 -1,21 -3,31l-15 -6c1,-7 3,-15 2,-24 -1,-6 -2,-12 -5,-18 -2,-5 -5,-8 -9,-11 -4,-3 -9,-5 -16,-6 -7,-1 -15,-1 -23,-1l1 -16z"/>
    <path class="fil2 str1" d="M401 381c35,1 71,2 94,12 24,10 36,28 43,42 7,14 10,25 11,35 1,9 0,17 -1,25 -1,9 -2,17 -5,25 -3,9 -8,18 -15,26 -7,8 -15,15 -22,20 -7,5 -14,8 -26,10 -13,2 -32,4 -49,5 -18,1 -34,0 -50,0"/>
    <path class="fil2 str1" d="M411 406c28,0 56,1 74,8 18,8 27,23 33,35 5,12 7,21 7,29 1,8 0,16 -3,23 -2,8 -6,16 -12,24 -5,8 -13,16 -23,21 -10,5 -22,7 -45,8 -22,1 -56,1 -90,1"/>
    <path class="fil2 str1" d="M374 431c26,0 53,0 70,1 18,2 26,6 33,12 8,6 15,15 18,24 4,8 3,17 1,23 -1,7 -3,13 -6,18 -3,5 -8,11 -13,14 -5,4 -12,6 -22,7 -11,1 -25,2 -45,2 -20,0 -46,-1 -71,-2"/>
    <line class="fil2 str1" x1="376" y1="582" x2="268" y2= "582" />
    <line class="fil2 str1" x1="345" y1="557" x2="308" y2= "556" />
    <line class="fil2 str1" x1="333" y1="530" x2="314" y2= "529" />
    <line class="fil2 str1" x1="366" y1="431" x2="354" y2= "431" />
    <line class="fil2 str1" x1="349" y1="432" x2="325" y2= "430" />
    <line class="fil2 str1" x1="406" y1="406" x2="389" y2= "405" />
    <line class="fil2 str1" x1="395" y1="381" x2="346" y2= "381" />
    <line class="fil2 str1" x1="414" y1="295" x2="370" y2= "295" />
    <line class="fil2 str1" x1="365" y1="295" x2="332" y2= "294" />
    <line class="fil2 str1" x1="327" y1="295" x2="318" y2= "295" />
    <line class="fil2 str1" x1="386" y1="269" x2="366" y2= "269" />
    <line class="fil2 str1" x1="361" y1="269" x2="348" y2= "269" />
    <line class="fil2 str1" x1="343" y1="243" x2="328" y2= "244" />
   </g>
  </g>
 </g>
</svg>
