<?xml version="1.0" encoding="UTF-8"?>
<!DOCTYPE svg PUBLIC "-//W3C//DTD SVG 1.1//EN" "http://www.w3.org/Graphics/SVG/1.1/DTD/svg11.dtd">
<!-- Creator: CorelDRAW Home & Student 2014 -->
<svg xmlns="http://www.w3.org/2000/svg" xml:space="preserve" width="8.8176mm" height="11.1054mm" version="1.1" style="shape-rendering:geometricPrecision; text-rendering:geometricPrecision; image-rendering:optimizeQuality; fill-rule:evenodd; clip-rule:evenodd"
viewBox="0 0 132 166"
 xmlns:xlink="http://www.w3.org/1999/xlink">
 <defs>
  <style type="text/css">
   <![CDATA[
    .fil0 {fill:white}
   ]]>
  </style>
 </defs>
 <g id="Layer_x0020_1">
  <metadata id="CorelCorpID_0Corel-Layer"/>
  <path class="fil0" d="M8 30c1,3 -2,1 1,2 4,1 2,0 2,-1l-3 -1zm46 52c4,1 2,1 5,-1l-5 -3 0 4zm-23 16c-2,-2 -1,-2 -3,-3 -2,-1 -2,-1 -3,-1l0 4 6 0zm9 -85l-3 0c0,4 0,4 2,7 2,-3 1,-2 1,-7zm0 0c0,5 1,4 -1,7 -2,-3 -2,-3 -2,-7 -2,3 -3,7 3,8 2,-3 2,-5 0,-8zm37 61l2 0 0 -7 -2 -1 0 8zm-54 -41c2,0 3,2 3,-4 0,-6 -1,-4 -3,-5 -2,3 -2,7 0,9zm-17 -3l2 0 0 -5 9 0 -2 8c-2,1 0,0 -2,1l6 -1 0 -9 -12 0 -1 6zm8 124c1,-2 2,0 1,-5 0,-3 0,-3 -1,-4l-2 0c-1,1 -2,2 -2,5 1,5 0,3 4,4zm28 -56c4,-9 -1,-9 -1,-9 -2,1 -3,-1 -3,5 1,6 0,3 4,4zm5 -64l0 -9 17 0 1 6c-2,1 -1,1 -3,2 0,0 -2,1 -2,1l6 0 -1 -10 -19 0c0,5 -1,7 1,10zm7 48l1 4 6 0 1 -9c-5,-1 -4,-1 -8,1l5 3c-3,2 -1,2 -5,1zm-26 -81c-2,4 -1,4 -2,9 5,0 7,1 7,-5 0,-5 -1,-4 -5,-4zm16 20l8 0c1,-5 1,-3 0,-8l-8 0 0 8zm-24 121l9 0 0 -9 -9 0 0 9zm-12 -112l-2 0c2,4 0,2 3,4l4 0c2,-1 0,0 2,-1l2 -8 -9 0 0 5zm17 64c1,0 1,0 3,1 2,1 1,1 3,3l5 -1 0 -8 -11 0 0 5zm22 71c-6,-3 -16,-3 -23,-3 -13,0 -11,2 -24,0l1 4 46 -1zm-19 -132l15 0 1 -9 -15 1 -1 8zm62 -17c-6,-7 -24,-4 -33,-4 2,7 7,3 16,5 6,1 7,2 9,0 1,0 1,0 1,0 2,-1 -1,0 3,-2l4 1zm0 42l2 1c2,-10 4,-15 -3,-23 -6,-5 -14,-6 -21,-6l0 4c20,0 24,5 22,24zm-43 -24l13 0c0,0 2,-1 2,-1 2,-1 1,-1 3,-2l-1 -6 -17 0 0 9zm30 40l0 -8 -17 -1 -1 9 18 0zm-60 80l18 0c0,-4 1,-5 -1,-9l-16 -1 -1 10zm82 -40c5,-3 1,-10 -2,-13 -6,-6 -7,-4 -14,-5 -12,-1 -26,-1 -38,-1 2,5 3,3 17,3 17,0 35,-3 37,16zm16 -69c-2,9 1,3 -4,24l2 2c0,0 0,1 0,1 2,2 1,0 3,3l3 -1 0 -2c2,-4 3,-2 1,-7 0,-1 0,-1 -1,-1 -2,-7 3,-14 -3,-28 -3,3 -2,2 -1,9zm-81 30l23 0 0 -9 -22 -1 -1 10zm17 90c5,3 37,1 45,-1 7,-2 10,-3 16,-7 4,-2 9,-8 12,-12 -12,5 -13,13 -30,16 -7,2 -14,3 -21,3 -5,0 -20,-3 -22,1zm-14 -156l41 1 13 2 5 1c-12,-12 -34,-7 -54,-8 0,0 -2,-1 -2,-1l-3 5zm-37 153c13,2 11,0 24,0 7,0 17,0 23,3 1,-2 1,0 1,-4 0,-1 0,-2 0,-4 -9,-2 -38,-1 -47,0l-1 5zm68 -132c7,0 15,1 21,6 7,8 5,13 3,23l-2 -1c-1,3 -2,2 0,5l8 1c8,-18 0,-33 -17,-40l-13 0 0 6zm12 -8c10,2 16,6 20,15 6,12 1,18 1,28l8 3c4,-12 5,-21 0,-33 -3,-8 -11,-19 -19,-19l-4 -1c-4,2 -1,1 -3,2 0,0 0,0 -1,0 -2,2 -3,1 -9,0 -9,-2 -14,2 -16,-5l-3 1 1 8 25 1zm-43 -13l3 -5c0,0 2,1 2,1 20,1 42,-4 54,8l-5 -1c5,5 9,6 15,13 5,6 5,15 9,20 -1,-7 -2,-6 1,-9 6,14 1,21 3,28 1,0 1,0 1,1 2,5 1,3 -1,7 12,-11 7,-70 -42,-72 -8,0 -35,-1 -41,1 -1,7 -2,5 1,8zm8 86c12,0 26,0 38,1 7,1 8,-1 14,5 3,3 7,10 2,13 0,30 -46,17 -68,19l0 9c9,2 36,1 47,0 43,-1 35,-43 17,-51 -9,-4 -37,-3 -48,-3l-2 7zm34 -21l16 3c25,6 34,36 23,58 -15,30 -42,17 -68,22l1 8c2,-4 17,-1 22,-1 7,0 14,-1 21,-3 17,-3 18,-11 30,-16 7,-10 9,-27 7,-39 -2,-19 -12,-22 -15,-31 -18,-7 -15,-11 -37,-10l0 2 0 7zm-28 80c25,0 52,5 65,-20 8,-16 5,-36 -7,-48 -4,-3 -11,-6 -13,-9l-32 -1 0 10c14,1 26,-2 38,7 9,8 11,22 7,33 -9,26 -48,17 -71,18l-1 10 14 0z"/>
 </g>
</svg>
