<svg xmlns="http://www.w3.org/2000/svg" xml:space="preserve" width="25.4mm" height="25.4mm" version="1.1" style="shape-rendering:geometricPrecision; text-rendering:geometricPrecision; image-rendering:optimizeQuality; fill-rule:evenodd; clip-rule:evenodd" viewBox="0 0 1443 1443"><circle fill="#007BA7" cx="722" cy="722" r="722"/><path fill="white" d="M647 972c93,0 197,20 246,-77 30,-58 18,-135 -29,-179 -14,-14 -40,-23 -50,-35l-118 -4 0 39c53,3 98,-9 142,27 34,28 42,83 27,124 -35,98 -183,66 -271,68l-2 38 55 -1zm105 -301l61 9c95,23 128,137 87,221 -58,113 -160,64 -257,82l2 31c8,-13 66,-4 84,-4 28,0 51,-4 79,-10 64,-14 70,-44 113,-63 30,-37 37,-99 30,-145 -11,-72 -49,-86 -61,-119 -65,-26 -53,-40 -140,-37l3 6 -1 29zm-127 78c45,0 97,1 141,5 28,2 32,-4 53,17 12,13 27,38 8,49 0,113 -172,64 -255,74l-2 32c35,7 137,3 177,2 164,-3 132,-165 64,-196 -32,-15 -139,-10 -180,-8l-6 25zm-31 -325l8 -19c1,0 11,1 11,1 75,5 158,-12 202,32l-17 -2c20,18 34,19 56,48 19,22 21,54 35,75 -3,-26 -7,-23 3,-34 24,52 3,81 13,105 1,1 2,2 2,3 6,19 4,13 -3,27 46,-40 25,-264 -161,-270 -30,-1 -132,-4 -156,3 -2,26 -6,18 7,31zm163 50c38,7 58,22 75,56 22,44 4,66 2,105l31 11c15,-43 20,-80 2,-124 -11,-29 -43,-71 -74,-73l-13 -5c-15,8 -6,5 -12,9 -1,0 -2,1 -3,1 -9,5 -13,3 -37,-2 -33,-7 -53,9 -59,-17l-12 2 2 32 98 5zm-47 30c27,0 58,2 78,23 28,29 19,49 15,86l-9 -3c-5,9 -9,7 0,18l28 3c32,-69 3,-126 -64,-150l-47 -3 -1 26zm-258 497c51,11 44,3 91,2 27,0 66,-1 86,12 6,-8 4,-2 5,-15 1,-6 0,-10 0,-16 -32,-9 -142,-5 -179,-1l-3 18zm142 -577l156 3 48 9 17 2c-44,-44 -127,-27 -202,-32 0,0 -10,-1 -11,-1l-8 19zm51 590c20,11 141,4 169,-3 27,-7 41,-11 63,-26 16,-10 36,-31 44,-48 -43,19 -49,49 -113,63 -28,6 -51,10 -79,10 -18,0 -76,-9 -84,4zm-64 -342l88 -1 -1 -34 -83 -1 -4 36zm308 -113c-8,36 4,12 -16,91l7 8c1,1 2,2 2,3 7,8 3,1 8,11l15 -3 -1 -9c7,-14 9,-8 3,-27 0,-1 -1,-2 -2,-3 -10,-24 11,-53 -13,-105 -10,11 -6,8 -3,34zm-62 261c19,-11 4,-36 -8,-49 -21,-21 -25,-15 -53,-17 -44,-4 -96,-5 -141,-5 7,20 8,11 62,11 66,0 132,-12 140,60zm-310 153l67 0c2,-18 4,-20 -3,-34l-60 -3 -4 37zm226 -302l-1 -34 -63 -1 -3 35 67 0zm-111 -155l47 1c2,-1 8,-4 8,-4 8,-3 5,-2 10,-6l-2 -22 -64 -1 1 32zm162 94l9 3c4,-37 13,-57 -15,-86 -20,-21 -51,-23 -78,-23l0 12c76,3 90,20 84,94zm-1 -161c-23,-25 -90,-14 -124,-14 6,26 26,10 59,17 24,5 28,7 37,2 1,0 2,-1 3,-1 6,-4 -3,-1 12,-9l13 5zm-233 67l56 -1 1 -33 -56 0 -1 34zm69 499c-20,-13 -59,-12 -86,-12 -47,1 -40,9 -91,-2l4 16 173 -2zm-83 -271c5,1 6,0 11,4 10,6 6,3 11,12l20 -2 0 -31 -40 -3 -2 20zm-65 -243l-4 0c4,18 -3,8 10,15l16 2c7,-5 1,0 8,-5l7 -28 -36 -1 -1 17zm48 424l33 2 0 -33 -32 -1 -1 32zm89 -457l30 1c5,-20 6,-13 0,-30l-29 -2 -1 31zm-59 -76c-7,15 -6,17 -7,36 18,-2 27,3 27,-19 0,-19 -6,-18 -20,-17zm99 308l3 15 24 0 3 -36c-21,-1 -17,-4 -29,6l18 12c-12,8 -4,6 -19,3zm-26 -184l-1 -32 64 1 2 22c-5,4 -2,3 -10,6 0,0 -6,3 -8,4l22 -1 0 -37 -73 0c-2,19 -6,27 4,37zm-20 243c16,-32 -4,-34 -4,-34 -6,3 -12,-1 -11,19 1,22 0,13 15,15zm-107 214c5,-7 7,-1 6,-19 -1,-12 -2,-11 -6,-17l-9 0c-4,6 -6,10 -5,21 2,18 0,11 14,15zm-28 -472l4 0 1 -17 36 1 -7 28c-7,5 -1,0 -8,5l20 -2 0 -35 -43 -1 -3 21zm61 13c8,-2 13,7 13,-17 -1,-20 -5,-14 -13,-16 -5,10 -5,24 0,33zm205 157l9 0 1 -29 -11 -5 1 34zm-141 -235c1,19 5,17 -3,29 -8,-12 -6,-11 -5,-29 -8,14 -12,30 9,33 8,-12 8,-20 -1,-33zm0 0l-8 0c-1,18 -3,17 5,29 8,-12 4,-10 3,-29zm-34 324c-5,-9 -1,-6 -11,-12 -5,-4 -6,-3 -11,-4l1 14 21 2zm90 -60c15,3 7,5 19,-3l-18 -12 -1 15zm-177 -199c5,14 -6,6 6,10 16,4 8,-3 9,-3l-15 -7z"/></svg>
