<?xml version="1.0" encoding="UTF-8"?>
<!DOCTYPE svg PUBLIC "-//W3C//DTD SVG 1.1//EN" "http://www.w3.org/Graphics/SVG/1.1/DTD/svg11.dtd">
<!-- Creator: CorelDRAW Home & Student 2014 -->
<svg xmlns="http://www.w3.org/2000/svg" xml:space="preserve" width="25.4mm" height="25.4mm" version="1.1" style="shape-rendering:geometricPrecision; text-rendering:geometricPrecision; image-rendering:optimizeQuality; fill-rule:evenodd; clip-rule:evenodd"
viewBox="0 0 932 932"
 xmlns:xlink="http://www.w3.org/1999/xlink">
 <defs>
  <style type="text/css">
   <![CDATA[
    .str0 {stroke:#007BA7;stroke-width:18.6441}
    .fil2 {fill:none}
    .fil0 {fill:white}
    .fil1 {fill:#007BA7;fill-rule:nonzero}
   ]]>
  </style>
 </defs>
 <g id="Layer_x0020_1">
  <metadata id="CorelCorpID_0Corel-Layer"/>
  <circle class="fil0" cx="466" cy="466" r="466"/>
  <g id="_380230192">
   <path class="fil1" d="M398 271l5 0c29,-1 57,-1 78,-1l0 0c12,0 21,0 29,0l0 0c9,1 16,3 25,5l0 0c8,3 16,7 24,12 8,5 16,11 23,17 6,5 11,11 16,16 5,6 8,12 11,18 5,10 7,18 8,28l0 0 0 1 1 0 0 0c1,10 3,22 1,37l0 0c-1,14 -7,30 -10,38l-18 -6c3,-8 8,-23 10,-35l0 0c2,-12 0,-22 -2,-31l0 0 0 0 0 -1 0 0c-1,-8 -3,-15 -6,-23 -3,-4 -6,-9 -10,-14 -4,-5 -8,-10 -13,-14 -6,-6 -13,-11 -21,-15 -7,-4 -14,-8 -20,-10l0 0c-7,-2 -13,-3 -21,-4l0 0c-8,-1 -16,-1 -27,-1 -21,1 -49,1 -78,1l-4 0 -1 -18z"/>
   <path class="fil1" d="M447 300c15,-1 30,-1 44,-1 15,0 28,2 39,5 12,3 21,9 28,15 7,6 13,13 17,20l0 0c4,6 7,13 10,20 2,7 3,14 4,23 0,8 0,16 -1,25 -1,8 -2,15 -2,19l-1 8 -18 -7 0 -3c1,-5 2,-12 3,-19 0,-7 1,-15 0,-22 0,-7 -1,-13 -3,-18 -2,-6 -4,-11 -8,-16l0 0c-3,-6 -7,-11 -13,-16 -5,-5 -12,-9 -21,-11 -9,-3 -21,-4 -34,-4 -14,-1 -29,0 -44,0l0 -18z"/>
   <path class="fil1" d="M482 329c10,1 20,1 29,2 10,2 19,5 26,10 7,5 12,12 16,19 4,9 6,19 7,28 2,13 0,25 -3,36l-17 -7c2,-9 3,-18 2,-28 -1,-6 -3,-14 -6,-21 -2,-5 -5,-9 -10,-12 -4,-3 -11,-5 -18,-6 -8,-2 -17,-2 -26,-2l0 -19z"/>
   <path class="fil2 str0" d="M460 437c41,2 82,3 109,14 27,11 41,32 49,49 9,16 12,29 13,39 1,11 0,21 -1,30 -1,9 -2,19 -6,28 -4,10 -10,21 -18,30 -7,9 -17,18 -25,23 -8,6 -16,9 -30,12 -15,2 -36,4 -56,5 -21,1 -39,1 -57,1"/>
   <path class="fil2 str0" d="M473 466c31,1 63,1 84,10 21,9 31,26 37,40 7,14 9,24 9,33 1,10 0,18 -3,27 -3,8 -7,18 -14,27 -6,9 -16,19 -27,24 -11,6 -25,8 -51,9 -26,2 -65,2 -104,2"/>
   <path class="fil2 str0" d="M429 495c31,0 61,0 81,2 20,2 30,6 38,13 9,7 17,18 21,27 4,10 3,20 1,27 -1,8 -4,14 -7,21 -4,6 -9,12 -15,16 -6,4 -14,6 -26,8 -12,1 -28,2 -51,2 -23,0 -53,-1 -82,-3"/>
   <line class="fil2 str0" x1="431" y1="669" x2="308" y2= "669" />
   <line class="fil2 str0" x1="396" y1="639" x2="354" y2= "638" />
   <line class="fil2 str0" x1="383" y1="609" x2="361" y2= "608" />
   <line class="fil2 str0" x1="421" y1="495" x2="406" y2= "495" />
   <line class="fil2 str0" x1="400" y1="497" x2="373" y2= "494" />
   <line class="fil2 str0" x1="466" y1="466" x2="447" y2= "466" />
   <line class="fil2 str0" x1="454" y1="437" x2="397" y2= "437" />
   <line class="fil2 str0" x1="476" y1="339" x2="425" y2= "339" />
   <line class="fil2 str0" x1="419" y1="339" x2="382" y2= "338" />
   <line class="fil2 str0" x1="375" y1="339" x2="365" y2= "339" />
   <line class="fil2 str0" x1="443" y1="309" x2="421" y2= "308" />
   <line class="fil2 str0" x1="414" y1="309" x2="400" y2= "309" />
   <line class="fil2 str0" x1="394" y1="280" x2="377" y2= "280" />
  </g>
 </g>
</svg>
