<?xml version="1.0" encoding="UTF-8"?>
<!DOCTYPE svg PUBLIC "-//W3C//DTD SVG 1.1//EN" "http://www.w3.org/Graphics/SVG/1.1/DTD/svg11.dtd">
<!-- Creator: CorelDRAW Home & Student 2014 -->
<svg xmlns="http://www.w3.org/2000/svg" xml:space="preserve" width="27.6645mm" height="16.0424mm" version="1.1" style="shape-rendering:geometricPrecision; text-rendering:geometricPrecision; image-rendering:optimizeQuality; fill-rule:evenodd; clip-rule:evenodd"
viewBox="0 0 138345 80225"
 xmlns:xlink="http://www.w3.org/1999/xlink">
 <defs>
  <style type="text/css">
   <![CDATA[
    .fil5 {fill:aqua}
    .fil0 {fill:#333333}
    .fil4 {fill:#666666}
    .fil2 {fill:gray}
    .fil6 {fill:#8E8F92}
    .fil7 {fill:#A8ABAC}
    .fil3 {fill:#B3B3B3}
    .fil1 {fill:#FAFAFA}
   ]]>
  </style>
 </defs>
 <g id="Layer_x0020_1">
  <metadata id="CorelCorpID_0Corel-Layer"/>
  <path class="fil0" d="M13835 73325l76415 -4 35125 8c0,-21480 0,-42959 0,-64438 0,-8245 219,-8863 -7133,-8863l-96842 0c-3953,0 -7612,-665 -7569,4537 187,22646 4,46028 4,68760z"/>
  <polygon class="fil1" points="19526,67060 28098,67136 28075,60999 109951,61009 109964,67141 119981,67111 120053,13853 19454,13799 "/>
  <polygon class="fil2" points="28076,36900 109982,36878 109963,15777 28040,15683 "/>
  <polygon class="fil2" points="19526,67060 119981,67111 109964,67141 109951,61009 28075,60999 28098,67136 "/>
  <path class="fil2" d="M19454 9829c-273,596 -268,3383 0,3970l100599 54 -72 53258c395,-676 236,-2626 236,-3531l-50 -56175c-100,-444 -39,-269 -200,-518l85 2892 -100598 50z"/>
  <path class="fil3" d="M60046 78338c28,-1142 188,-1690 -273,-2554 1941,314 10627,116 13723,116 2560,1 2757,320 4286,-649 -301,545 -315,707 -1135,867l10 1513c1223,437 439,-360 861,734l-17472 -27zm71670 -5030l-3569 0 -2772 21 -35125 -8 -76415 4 -4179 -17 -4199 0 -5457 0 0 2870c38,318 102,598 209,813 441,885 1394,1578 2817,1103 432,644 -70,48 371,432 201,176 65,117 410,294 604,309 474,221 949,180 787,1066 3955,1210 5944,1225l1116 0 73 0 108779 0c5989,-33 9777,-81 10179,-148l2487 -536c835,-354 356,-95 688,-512 595,84 527,62 1024,-145 36,-16 321,-171 421,-239l500 -415c1103,76 1913,-552 2238,-1387 63,-162 108,-342 140,-535l0 -3000 -6629 0z"/>
  <path class="fil1" d="M19454 9829l100598 -50 -85 -2892 -100273 -66 -258 1404c-8,516 18,1079 18,1604z"/>
  <polygon class="fil4" points="28085,50365 53308,50353 53333,39259 28142,39218 "/>
  <path class="fil4" d="M56325 50257c1175,257 24408,213 25224,-24l8 -10909 -25203 -104 -29 11037z"/>
  <polygon class="fil4" points="84721,50099 109900,50087 109965,39016 84717,38957 "/>
  <polygon class="fil1" points="43047,29089 83948,29100 83935,24765 43022,24778 "/>
  <path class="fil5" d="M83928 28994c1681,472 8636,77 11006,149l110 -4406 -11171 23 55 4234z"/>
  <path class="fil6" d="M28079 58825c418,656 688,348 2832,345l19455 0c798,0 2629,321 2959,-345 -263,-569 18,-343 -986,-381 -5382,-200 -15285,27 -21211,22 -1702,-1 -2240,-241 -3049,359z"/>
  <path class="fil6" d="M28080 56663c376,696 463,381 2832,377l21209 21c959,-7 950,197 1204,-398 -457,-851 -4867,-324 -5985,-324l-17963 -18c-137,-1 -689,12 -797,39 -565,142 -113,83 -500,303z"/>
  <path class="fil6" d="M84704 52556c462,587 5113,306 6085,306l16212 0c763,1 2600,316 2950,-306 -270,-698 -295,-399 -2734,-394l-22016 28c-637,193 -106,7 -497,366z"/>
  <path class="fil6" d="M56398 52556c447,585 5115,306 6073,306l16213 0c771,1 2593,316 2958,-306 -280,-700 -296,-399 -2742,-394l-22014 29c-637,195 -96,-1 -488,365z"/>
  <path class="fil7" d="M69681 11917c329,845 -1016,579 2950,568l8026 31c1127,-6 1296,248 1296,-588 -1,-902 61,-548 -2837,-541l-8868 40c-768,288 -139,-24 -567,490z"/>
 </g>
</svg>
