<?xml version="1.0" encoding="UTF-8"?>
<!DOCTYPE svg PUBLIC "-//W3C//DTD SVG 1.1//EN" "http://www.w3.org/Graphics/SVG/1.1/DTD/svg11.dtd">
<!-- Creator: CorelDRAW Home & Student 2014 -->
<svg xmlns="http://www.w3.org/2000/svg" xml:space="preserve" width="22.4435mm" height="15.1363mm" version="1.1" style="shape-rendering:geometricPrecision; text-rendering:geometricPrecision; image-rendering:optimizeQuality; fill-rule:evenodd; clip-rule:evenodd"
viewBox="0 0 14046 9473"
 xmlns:xlink="http://www.w3.org/1999/xlink">
 <defs>
  <style type="text/css">
   <![CDATA[
    .fil1 {fill:black}
    .fil4 {fill:#666666}
    .fil3 {fill:#8A8A8A}
    .fil2 {fill:darkgray}
    .fil0 {fill:white}
   ]]>
  </style>
 </defs>
 <g id="Layer_x0020_1">
  <metadata id="CorelCorpID_0Corel-Layer"/>
  <g id="_396935144">
   <polygon class="fil0" points="5240,3362 5308,3362 5308,3375 5335,3375 5335,3389 5362,3389 5362,3403 5390,3403 5390,3416 5403,3416 5403,3430 5417,3430 5417,3443 5444,3443 5444,3457 5458,3457 5458,3471 5471,3471 5471,3484 5485,3484 5485,3511 5499,3511 5499,3525 5512,3525 5512,3539 5526,3539 5526,3566 5539,3566 5539,3593 5553,3593 5553,3634 5567,3634 5567,3661 5580,3661 5580,6070 13597,6070 13597,436 3566,436 3566,3348 5240,3348 "/>
   <polygon class="fil0" points="1851,8329 5226,8329 5226,3688 1742,3688 1742,5907 1756,5907 1756,5920 1769,5920 1769,5934 1783,5934 1783,5948 1797,5948 1797,5975 1810,5975 1810,5989 1824,5989 1824,6029 1837,6029 1837,6070 1851,6070 "/>
   <polygon class="fil1" points="3430,54 3389,54 3389,68 3362,68 3362,82 3334,82 3334,95 3307,95 3307,109 3294,109 3294,122 3280,122 3280,136 3253,136 3253,150 3239,150 3239,177 3226,177 3226,191 3212,191 3212,204 3198,204 3198,231 3185,231 3185,259 3171,259 3171,286 3158,286 3158,354 3144,354 3144,3335 3552,3335 3552,436 13597,436 13597,6084 5580,6084 5580,6465 13706,6465 13706,6451 13760,6451 13760,6438 13801,6438 13801,6424 13828,6424 13828,6410 13842,6410 13842,6397 13869,6397 13869,6383 13882,6383 13882,6370 13896,6370 13896,6356 13910,6356 13910,6342 13923,6342 13923,6329 13937,6329 13937,6302 13950,6302 13950,6288 13964,6288 13964,6261 13978,6261 13978,6234 13991,6234 13991,6193 14005,6193 14005,313 13991,313 13991,272 13978,272 13978,245 13964,245 13964,218 13950,218 13950,204 13937,204 13937,177 13923,177 13923,163 13910,163 13910,150 13896,150 13896,136 13882,136 13882,122 13869,122 13869,109 13842,109 13842,95 13814,95 13814,82 13801,82 13801,68 13760,68 13760,54 13706,54 13706,41 3430,41 "/>
   <polygon class="fil1" points="1742,5907 1742,3688 5226,3688 5226,8329 1851,8329 1851,8901 5267,8901 5267,8888 5294,8888 5294,8874 5335,8874 5335,8860 5362,8860 5362,8847 5376,8847 5376,8833 5403,8833 5403,8819 5417,8819 5417,8806 5430,8806 5430,8792 5444,8792 5444,8779 5458,8779 5458,8765 5471,8765 5471,8751 5485,8751 5485,8724 5499,8724 5499,8711 5512,8711 5512,8683 5526,8683 5526,8656 5539,8656 5539,8629 5553,8629 5553,8534 5567,8534 5567,3729 5553,3729 5553,3648 5539,3648 5539,3620 5526,3620 5526,3579 5512,3579 5512,3566 5499,3566 5499,3539 5485,3539 5485,3525 5471,3525 5471,3498 5458,3498 5458,3484 5444,3484 5444,3471 5430,3471 5430,3457 5403,3457 5403,3443 5390,3443 5390,3430 5362,3430 5362,3416 5349,3416 5349,3403 5322,3403 5322,3389 5281,3389 5281,3375 5240,3375 5240,3362 1756,3362 1756,3375 1688,3375 1688,3389 1647,3389 1647,3403 1620,3403 1620,3416 1606,3416 1606,3430 1579,3430 1579,3443 1565,3443 1565,3457 1538,3457 1538,3471 1524,3471 1524,3484 1511,3484 1511,3498 1497,3498 1497,3525 1483,3525 1483,3539 1470,3539 1470,3552 1456,3552 1456,3579 1443,3579 1443,3607 1429,3607 1429,3648 1415,3648 1415,3688 1402,3688 1402,5880 1701,5880 1701,5893 1728,5893 1728,5907 "/>
   <polygon class="fil1" points="14,8969 0,8969 0,9105 14,9105 14,9160 27,9160 27,9201 41,9201 41,9228 54,9228 54,9255 68,9255 68,9269 82,9269 82,9282 95,9282 95,9296 109,9296 109,9309 122,9309 122,9323 136,9323 136,9337 163,9337 163,9350 191,9350 191,9364 218,9364 218,9377 259,9377 259,9391 299,9391 299,9405 354,9405 354,9418 408,9418 408,9432 490,9432 490,9446 599,9446 599,9459 789,9459 789,9473 1021,9473 1021,9459 1211,9459 1211,9446 1320,9446 1320,9432 1388,9432 1388,9418 1456,9418 1456,9405 1511,9405 1511,9391 1552,9391 1552,9377 1592,9377 1592,9364 1620,9364 1620,9350 1660,9350 1660,9337 1674,9337 1674,9323 1701,9323 1701,9309 1715,9309 1715,9296 1728,9296 1728,9282 1742,9282 1742,9269 1769,9269 1769,9255 1783,9255 1783,9228 1797,9228 1797,9214 1810,9214 1810,9201 1824,9201 1824,9187 1837,9187 1837,9160 1851,9160 1851,9146 1865,9146 1865,9132 1878,9132 1878,9119 1892,9119 1892,9105 1905,9105 1905,9092 1933,9092 1933,9078 1960,9078 1960,9064 1987,9064 1987,9051 2001,9051 2001,9064 2014,9064 2014,9051 2069,9051 2069,9064 2205,9064 2205,9078 2368,9078 2368,9092 2559,9092 2559,9105 2817,9105 2817,9119 3280,9119 3280,9132 3852,9132 3852,9119 4314,9119 4314,9105 4573,9105 4573,9092 4764,9092 4764,9078 4927,9078 4927,9064 5063,9064 5063,9051 5172,9051 5172,9037 5267,9037 5267,9024 5349,9024 5349,9010 5417,9010 5417,8996 5471,8996 5471,8983 5526,8983 5526,8969 5567,8969 5567,8956 5607,8956 5607,8942 5635,8942 5635,8928 5662,8928 5662,8915 5703,8915 5703,8901 5716,8901 5716,8888 5743,8888 5743,8874 5771,8874 5771,8860 5784,8860 5784,8847 5798,8847 5798,8833 5812,8833 5812,8819 5839,8819 5839,8806 5852,8806 5852,8792 5866,8792 5866,8779 5880,8779 5880,8765 5893,8765 5893,8751 5907,8751 5907,8724 5934,8724 5934,8711 5948,8711 5948,8697 5961,8697 5961,8670 5989,8670 5989,8656 6002,8656 6002,8643 6016,8643 6016,8629 6043,8629 6043,8615 6084,8615 6084,8602 6125,8602 6125,8588 6165,8588 6165,8574 6233,8574 6233,8561 6370,8561 6370,8547 6397,8547 6397,8561 6424,8561 6424,8547 6574,8547 6574,8561 7377,8561 7377,8574 9772,8574 9772,8561 10589,8561 10589,8547 11133,8547 11133,8534 11555,8534 11555,8520 11923,8520 11923,8506 12208,8506 12208,8493 12467,8493 12467,8479 12685,8479 12685,8466 12862,8466 12862,8452 13011,8452 13011,8438 13134,8438 13134,8425 13243,8425 13243,8411 13338,8411 13338,8398 13420,8398 13420,8384 13501,8384 13501,8370 13556,8370 13556,8357 13624,8357 13624,8343 13665,8343 13665,8329 13719,8329 13719,8316 13746,8316 13746,8302 13787,8302 13787,8289 13814,8289 13814,8275 13842,8275 13842,8261 13869,8261 13869,8248 13896,8248 13896,8234 13910,8234 13910,8221 13923,8221 13923,8207 13937,8207 13937,8180 13950,8180 13950,8098 13937,8098 13937,8085 13923,8085 13923,8071 13910,8071 13910,8057 13896,8057 13896,8044 13882,8044 13882,8030 13855,8030 13855,8016 13828,8016 13828,8003 13801,8003 13801,7989 13760,7989 13760,7976 13733,7976 13733,7962 13678,7962 13678,7948 13637,7948 13637,7935 13583,7935 13583,7921 13515,7921 13515,7908 13447,7908 13447,7894 13365,7894 13365,7880 13284,7880 13284,7867 13175,7867 13175,7853 13052,7853 13052,7840 12916,7840 12916,7826 12753,7826 12753,7812 12549,7812 12549,7799 12304,7799 12304,7785 12018,7785 12018,7771 11691,7771 11691,7758 11269,7758 11269,7744 10766,7744 10766,7731 10303,7731 10303,7744 10317,7744 10317,7771 10330,7771 10330,7785 10344,7785 10344,7812 10357,7812 10357,7826 10371,7826 10371,7853 10385,7853 10385,7867 10398,7867 10398,7894 10412,7894 10412,7908 10425,7908 10425,7935 10439,7935 10439,7948 10453,7948 10453,7962 10466,7962 10466,7989 10480,7989 10480,8003 10494,8003 10494,8016 10507,8016 10507,8044 10521,8044 10521,8057 10534,8057 10534,8085 10548,8085 10548,8098 10562,8098 10562,8112 10575,8112 10575,8125 10589,8125 10589,8153 10602,8153 10602,8166 10616,8166 10616,8180 10630,8180 10630,8193 10643,8193 10643,8221 10657,8221 10657,8234 10670,8234 10670,8248 10684,8248 10684,8275 10698,8275 10698,8289 10711,8289 10711,8302 10875,8302 10875,8493 6274,8493 6274,8302 6438,8302 6438,8289 6451,8289 6451,8275 6465,8275 6465,8261 6478,8261 6478,8234 6492,8234 6492,8221 6506,8221 6506,8207 6519,8207 6519,8193 6533,8193 6533,8166 6547,8166 6547,8153 6560,8153 6560,8139 6574,8139 6574,8125 6587,8125 6587,8098 6601,8098 6601,8085 6615,8085 6615,8071 6628,8071 6628,8044 6642,8044 6642,8030 6655,8030 6655,8016 6669,8016 6669,7989 6683,7989 6683,7976 6696,7976 6696,7962 6710,7962 6710,7935 6723,7935 6723,7921 6737,7921 6737,7894 6751,7894 6751,7880 6764,7880 6764,7853 6778,7853 6778,7840 6792,7840 6792,7812 6805,7812 6805,7799 6819,7799 6819,7771 6832,7771 6832,7758 6846,7758 6846,7731 6383,7731 6383,7744 5880,7744 5880,7758 5594,7758 5594,7717 5580,7717 5580,8615 5567,8615 5567,8643 5553,8643 5553,8683 5539,8683 5539,8711 5526,8711 5526,8724 5512,8724 5512,8751 5499,8751 5499,8765 5485,8765 5485,8779 5471,8779 5471,8792 5458,8792 5458,8806 5444,8806 5444,8819 5430,8819 5430,8833 5417,8833 5417,8847 5403,8847 5403,8860 5376,8860 5376,8874 5349,8874 5349,8888 5322,8888 5322,8901 5294,8901 5294,8915 5240,8915 5240,8928 1851,8928 1851,9078 1837,9078 1837,9132 1824,9132 1824,9160 1810,9160 1810,9187 1797,9187 1797,9201 1783,9201 1783,9214 1769,9214 1769,9228 1756,9228 1756,9241 1742,9241 1742,9255 1715,9255 1715,9269 150,9269 150,9255 122,9255 122,9241 109,9241 109,9228 95,9228 95,9214 82,9214 82,9201 68,9201 68,9173 54,9173 54,9160 41,9160 41,9119 27,9119 27,9064 14,9064 "/>
   <polygon class="fil2" points="6846,7731 6846,7758 6832,7758 6832,7771 6819,7771 6819,7799 6805,7799 6805,7812 6792,7812 6792,7840 6778,7840 6778,7853 6764,7853 6764,7880 6751,7880 6751,7894 6737,7894 6737,7921 6723,7921 6723,7935 6710,7935 6710,7962 6696,7962 6696,7976 6683,7976 6683,7989 6669,7989 6669,8016 6655,8016 6655,8044 10494,8044 10494,8003 10480,8003 10480,7989 10466,7989 10466,7962 10453,7962 10453,7948 10439,7948 10439,7935 10425,7935 10425,7908 10412,7908 10412,7894 10398,7894 10398,7867 10385,7867 10385,7853 10371,7853 10371,7826 10357,7826 10357,7812 10344,7812 10344,7785 10330,7785 10330,7771 10317,7771 10317,7744 10303,7744 10303,7717 10289,7717 10289,7703 10276,7703 10276,7676 10262,7676 10262,7663 10249,7663 10249,7635 10235,7635 10235,7622 10221,7622 10221,7595 10208,7595 10208,7567 10194,7567 10194,7554 10180,7554 10180,7526 10167,7526 10167,7499 10153,7499 10153,7486 10140,7486 10140,7458 10126,7458 10126,7431 10112,7431 10112,7404 10099,7404 10099,7377 10085,7377 10085,7350 10072,7350 10072,7322 10058,7322 10058,7295 10044,7295 10044,7268 10031,7268 10031,7241 10017,7241 10017,7213 10004,7213 10004,7186 9990,7186 9990,7145 9976,7145 9976,7118 9963,7118 9963,7091 9949,7091 9949,7050 9935,7050 9935,7009 9922,7009 9922,6968 9908,6968 9908,6928 9895,6928 9895,6887 9881,6887 9881,6832 9867,6832 9867,6778 9854,6778 9854,6723 9840,6723 9840,6642 7322,6642 7322,6669 7309,6669 7309,6751 7295,6751 7295,6805 7281,6805 7281,6860 7268,6860 7268,6900 7254,6900 7254,6941 7241,6941 7241,6982 7227,6982 7227,7023 7213,7023 7213,7064 7200,7064 7200,7091 7186,7091 7186,7132 7173,7132 7173,7159 7159,7159 7159,7186 7145,7186 7145,7227 7132,7227 7132,7254 7118,7254 7118,7281 7105,7281 7105,7309 7091,7309 7091,7336 7077,7336 7077,7363 7064,7363 7064,7390 7050,7390 7050,7418 7037,7418 7037,7445 7023,7445 7023,7458 7009,7458 7009,7486 6996,7486 6996,7513 6982,7513 6982,7540 6968,7540 6968,7554 6955,7554 6955,7581 6941,7581 6941,7595 6928,7595 6928,7622 6914,7622 6914,7649 6900,7649 6900,7663 6887,7663 6887,7690 6873,7690 6873,7703 6860,7703 6860,7731 "/>
   <polygon class="fil0" points="1701,6097 163,6097 163,8833 1701,8833 "/>
   <path class="fil2" d="M41 6057l13 0 0 -28 14 0 0 -40 14 0 0 -14 13 0 0 -27 14 0 0 -14 13 0 0 -14 28 0 0 -13 41 0 0 -14 1497 0 0 14 27 0 0 13 27 0 0 14 14 0 0 14 13 0 0 13 14 0 0 28 14 0 0 27 13 0 0 27 14 0 0 3062 -14 0 0 27 -13 0 0 28 -14 0 0 27 -14 0 0 14 -13 0 0 13 -14 0 0 14 -27 0 0 13 -27 0 0 14 -1511 0 0 -14 -27 0 0 -13 -14 0 0 -14 -27 0 0 -27 -14 0 0 -14 -13 0 0 -13 -14 0 0 -41 -14 0 0 -27 -13 0 0 -3035zm5199 -2695l0 13 41 0 0 14 41 0 0 14 27 0 0 13 13 0 0 14 28 0 0 13 13 0 0 14 27 0 0 14 14 0 0 13 14 0 0 14 13 0 0 27 14 0 0 14 14 0 0 27 13 0 0 13 14 0 0 41 13 0 0 28 14 0 0 81 14 0 0 4805 -14 0 0 95 -14 0 0 27 -13 0 0 27 -14 0 0 28 -13 0 0 13 -14 0 0 27 -14 0 0 14 -13 0 0 14 -14 0 0 13 -14 0 0 14 -13 0 0 13 -14 0 0 14 -27 0 0 14 -14 0 0 13 -27 0 0 14 -41 0 0 14 -27 0 0 13 -3416 0 0 -2831 -14 0 0 -41 -13 0 0 -40 -14 0 0 -14 -13 0 0 -27 -14 0 0 -14 -14 0 0 -14 -13 0 0 -13 -28 0 0 -14 -27 0 0 -13 -299 0 0 -2192 13 0 0 -40 14 0 0 -41 14 0 0 -28 13 0 0 -27 14 0 0 -13 13 0 0 -14 14 0 0 -27 14 0 0 -14 13 0 0 -13 14 0 0 -14 27 0 0 -14 14 0 0 -13 27 0 0 -14 14 0 0 -13 27 0 0 -14 41 0 0 -14 68 0 0 -13 3484 0zm8357 2708l-8017 0 0 -2409 -13 0 0 -27 -14 0 0 -41 -14 0 0 -27 -13 0 0 -27 -14 0 0 -14 -13 0 0 -14 -14 0 0 -27 -14 0 0 -13 -13 0 0 -14 -14 0 0 -14 -27 0 0 -13 -14 0 0 -14 -13 0 0 -13 -28 0 0 -14 -27 0 0 -14 -27 0 0 -13 -68 0 0 -14 -1674 0 0 -2912 -14 0 0 2899 -408 0 0 -2981 14 0 0 -68 13 0 0 -27 14 0 0 -28 13 0 0 -27 14 0 0 -13 14 0 0 -14 13 0 0 -27 14 0 0 -14 27 0 0 -14 14 0 0 -13 13 0 0 -14 27 0 0 -13 28 0 0 -14 27 0 0 -14 41 0 0 -13 10276 0 0 13 54 0 0 14 41 0 0 14 13 0 0 13 28 0 0 14 27 0 0 13 13 0 0 14 14 0 0 14 14 0 0 13 13 0 0 14 14 0 0 27 13 0 0 14 14 0 0 27 14 0 0 27 13 0 0 41 14 0 0 5880 -14 0 0 41 -13 0 0 27 -14 0 0 27 -14 0 0 14 -13 0 0 27 -14 0 0 13 -13 0 0 14 -14 0 0 14 -14 0 0 13 -13 0 0 14 -27 0 0 13 -14 0 0 14 -27 0 0 14 -41 0 0 13 -54 0 0 14 -8126 0 0 -381 8017 0 0 -14zm-8003 1647l0 -1211 8112 0 0 -14 54 0 0 -14 41 0 0 -13 27 0 0 -14 14 0 0 -13 27 0 0 -14 13 0 0 -14 28 0 0 -13 13 0 0 -14 14 0 0 -13 13 0 0 -28 14 0 0 -13 14 0 0 -14 13 0 0 -27 14 0 0 -27 14 0 0 -41 13 0 0 -55 14 0 0 -5825 -14 0 0 -54 -13 0 0 -41 -14 0 0 -27 -14 0 0 -27 -13 0 0 -14 -14 0 0 -14 -14 0 0 -27 -13 0 0 -14 -14 0 0 -13 -13 0 0 -14 -28 0 0 -13 -13 0 0 -14 -27 0 0 -14 -14 0 0 -13 -41 0 0 -14 -27 0 0 -13 -54 0 0 -14 -10249 0 0 14 -54 0 0 13 -41 0 0 14 -28 0 0 13 -27 0 0 14 -27 0 0 14 -14 0 0 13 -13 0 0 14 -14 0 0 13 -13 0 0 14 -14 0 0 14 -14 0 0 13 -13 0 0 14 -14 0 0 27 -13 0 0 27 -14 0 0 28 -14 0 0 40 -13 0 0 82 -14 0 0 2954 -1334 0 0 13 -68 0 0 14 -41 0 0 13 -40 0 0 14 -28 0 0 14 -13 0 0 13 -27 0 0 14 -14 0 0 13 -14 0 0 14 -13 0 0 14 -14 0 0 13 -14 0 0 14 -13 0 0 13 -14 0 0 28 -13 0 0 13 -14 0 0 27 -14 0 0 41 -13 0 0 41 -14 0 0 68 -13 0 0 2151 -1225 0 0 13 -28 0 0 14 -13 0 0 13 -14 0 0 14 -13 0 0 14 -14 0 0 27 -14 0 0 14 -13 0 0 40 -14 0 0 55 -13 0 0 2980 13 0 0 55 14 0 0 41 13 0 0 13 14 0 0 28 14 0 0 13 13 0 0 14 14 0 0 13 13 0 0 14 28 0 0 14 1565 0 0 -14 27 0 0 -14 14 0 0 -13 13 0 0 -14 14 0 0 -13 14 0 0 -14 13 0 0 -27 14 0 0 -28 13 0 0 -54 14 0 0 -150 3389 0 0 -13 54 0 0 -14 28 0 0 -13 27 0 0 -14 27 0 0 -14 27 0 0 -13 14 0 0 -14 13 0 0 -14 14 0 0 -13 14 0 0 -14 13 0 0 -13 14 0 0 -14 14 0 0 -14 13 0 0 -27 14 0 0 -13 13 0 0 -28 14 0 0 -40 14 0 0 -28 13 0 0 -898 14 0z"/>
   <path class="fil1" d="M150 6097l1565 0 0 2750 -1565 0 0 -2750zm41 -190l-41 0 0 13 -28 0 0 14 -13 0 0 14 -14 0 0 27 -13 0 0 14 -14 0 0 40 -14 0 0 28 -13 0 0 3035 13 0 0 27 14 0 0 41 14 0 0 13 13 0 0 14 14 0 0 27 27 0 0 14 14 0 0 13 27 0 0 14 1511 0 0 -14 27 0 0 -13 27 0 0 -14 14 0 0 -13 13 0 0 -14 14 0 0 -27 14 0 0 -28 13 0 0 -27 14 0 0 -3062 -14 0 0 -27 -13 0 0 -27 -14 0 0 -28 -14 0 0 -13 -13 0 0 -14 -14 0 0 -14 -27 0 0 -13 -27 0 0 -14 -1497 0 0 14z"/>
   <polygon class="fil2" points="6274,8493 10875,8493 10875,8302 6274,8302 "/>
   <polygon class="fil3" points="6655,8030 6642,8030 6642,8044 6628,8044 6628,8071 6615,8071 6615,8085 6601,8085 6601,8098 6587,8098 6587,8125 6574,8125 6574,8139 6560,8139 6560,8153 6547,8153 6547,8193 10616,8193 10616,8166 10602,8166 10602,8153 10589,8153 10589,8125 10575,8125 10575,8112 10562,8112 10562,8098 10548,8098 10548,8085 10534,8085 10534,8057 10521,8057 10521,8044 10507,8044 10507,8016 10494,8016 10494,8044 6655,8044 "/>
   <polygon class="fil4" points="6438,8302 10711,8302 10711,8289 10698,8289 10698,8275 10684,8275 10684,8248 10670,8248 10670,8234 10657,8234 10657,8221 10643,8221 10643,8193 10630,8193 10630,8180 10616,8180 10616,8193 6547,8193 6547,8166 6533,8166 6533,8193 6519,8193 6519,8207 6506,8207 6506,8221 6492,8221 6492,8234 6478,8234 6478,8261 6465,8261 6465,8275 6451,8275 6451,8289 6438,8289 "/>
   <polygon class="fil4" points="7322,6587 8193,6587 8193,6574 9827,6574 9827,6506 7336,6506 7336,6574 7322,6574 "/>
   <polygon class="fil3" points="7322,6587 7322,6642 9827,6642 9827,6574 8193,6574 8193,6587 "/>
   <polygon class="fil3" points="1701,6097 1701,8833 163,8833 163,6097 150,6097 150,8847 1715,8847 1715,6097 "/>
  </g>
 </g>
</svg>
