<?xml version="1.0" encoding="UTF-8"?>
<!DOCTYPE svg PUBLIC "-//W3C//DTD SVG 1.1//EN" "http://www.w3.org/Graphics/SVG/1.1/DTD/svg11.dtd">
<!-- Creator: CorelDRAW Home & Student 2014 -->
<svg xmlns="http://www.w3.org/2000/svg" xml:space="preserve" width="15.4442mm" height="15.4442mm" version="1.1" style="shape-rendering:geometricPrecision; text-rendering:geometricPrecision; image-rendering:optimizeQuality; fill-rule:evenodd; clip-rule:evenodd"
viewBox="0 0 730 730"
 xmlns:xlink="http://www.w3.org/1999/xlink">
 <defs>
  <style type="text/css">
   <![CDATA[
    .fil0 {fill:black}
    .fil1 {fill:white;fill-rule:nonzero}
   ]]>
  </style>
 </defs>
 <g id="Layer_x0020_1">
  <metadata id="CorelCorpID_0Corel-Layer"/>
  <circle class="fil0" cx="365" cy="365" r="365"/>
  <path class="fil1" d="M542 289c0,19 -11,37 -31,54 -12,10 -30,21 -55,33 10,17 15,33 15,47 0,29 -19,51 -56,65 -27,10 -58,14 -94,14l-102 0 71 -200 70 0 -60 169 10 0c23,0 42,-2 58,-8 23,-7 35,-20 35,-38 0,-6 -3,-13 -8,-21 -5,-8 -8,-14 -8,-18 0,-1 1,-3 1,-4 2,-5 9,-11 21,-16 16,-8 28,-15 35,-22 13,-10 19,-23 19,-37 0,-20 -15,-30 -46,-30l-228 0 30 -49 228 0c30,0 52,4 67,12 18,10 28,26 28,49z"/>
 </g>
</svg>
