<?xml version="1.0" encoding="UTF-8"?>
<!DOCTYPE svg PUBLIC "-//W3C//DTD SVG 1.1//EN" "http://www.w3.org/Graphics/SVG/1.1/DTD/svg11.dtd">
<!-- Creator: CorelDRAW Home & Student 2014 -->
<svg xmlns="http://www.w3.org/2000/svg" xml:space="preserve" width="15.4442mm" height="15.4442mm" version="1.1" style="shape-rendering:geometricPrecision; text-rendering:geometricPrecision; image-rendering:optimizeQuality; fill-rule:evenodd; clip-rule:evenodd"
viewBox="0 0 714 714"
 xmlns:xlink="http://www.w3.org/1999/xlink">
 <defs>
  <style type="text/css">
   <![CDATA[
    .fil0 {fill:white}
    .fil1 {fill:black;fill-rule:nonzero}
   ]]>
  </style>
 </defs>
 <g id="Layer_x0020_1">
  <metadata id="CorelCorpID_0Corel-Layer"/>
  <circle class="fil0" cx="357" cy="357" r="357"/>
  <path class="fil1" d="M529 283c0,18 -9,36 -29,52 -12,10 -30,21 -54,33 10,17 15,32 15,46 0,28 -19,49 -56,63 -26,9 -56,14 -91,14l-100 0 69 -196 69 0 -58 166 9 0c23,0 41,-3 57,-8 23,-8 34,-20 34,-38 0,-6 -3,-12 -8,-20 -5,-8 -7,-14 -7,-17 0,-2 0,-3 0,-4 3,-6 10,-11 21,-17 16,-7 27,-14 34,-20 13,-11 19,-23 19,-37 0,-20 -15,-29 -45,-29l-224 0 30 -49 223 0c29,0 51,4 65,12 18,10 27,26 27,49z"/>
 </g>
</svg>
